<svg width="18" height="18" viewBox="0 0 18 18" fill="none" xmlns="http://www.w3.org/2000/svg">
<path d="M9.00708 0.0975157C8.74257 0.0972178 8.4888 0.202165 8.30175 0.389207C8.11471 0.57625 8.00976 0.830019 8.01006 1.09454L8.00299 8.00297L1.08749 8.00297C0.822969 8.00267 0.5692 8.10762 0.382158 8.29466C0.195116 8.4817 0.0901683 8.73547 0.0904661 8.99999C0.0904661 9.55153 0.535943 9.99701 1.08749 9.99701L8.00299 9.99701L8.00299 16.9125C8.00299 17.4641 8.44847 17.9095 9.00001 17.9095C9.55155 17.9095 9.99703 17.4641 9.99703 16.9125L9.99703 9.99701L16.9125 9.99701C17.4641 9.99701 17.9096 9.55153 17.9096 8.99999C17.9096 8.44845 17.4641 8.00297 16.9125 8.00297H9.99703L9.99703 1.08747C9.99703 0.550064 9.54448 0.0975156 9.00708 0.0975157Z" fill="white"/>
</svg>
